<svg xmlns="http://www.w3.org/2000/svg" viewBox="0 0 200 80"><defs><style>.cls-1{opacity:0.72;}.cls-2,.cls-3,.cls-4,.cls-5,.cls-6,.cls-7,.cls-8,.cls-9{fill:#fff;}.cls-2{opacity:0.1;}.cls-3,.cls-4,.cls-5,.cls-6,.cls-7,.cls-8,.cls-9{stroke:#fff;stroke-miterlimit:10;}.cls-3{stroke-width:2px;opacity:0.2;}.cls-4{stroke-width:4px;opacity:0.3;}.cls-5{stroke-width:6px;opacity:0.4;}.cls-6{stroke-width:8px;opacity:0.55;}.cls-7{stroke-width:10px;opacity:0.7;}.cls-8{stroke-width:12px;opacity:0.85;}.cls-9{stroke-width:15px;}</style></defs><title>2-01</title><g id="_1" data-name="1" class="cls-1"><rect class="cls-2" x="24" y="74.33" width="5.67" height="5.67" rx="0.67"/><rect class="cls-2" x="44" y="74.33" width="5.67" height="5.67" rx="0.67"/><rect class="cls-2" x="64" y="74.33" width="5.67" height="5.67" rx="0.67"/><rect class="cls-2" x="84" y="74.33" width="5.67" height="5.67" rx="0.67"/><rect class="cls-2" x="104" y="74.33" width="5.67" height="5.67" rx="0.67"/><rect class="cls-2" x="124" y="74.33" width="5.67" height="5.67" rx="0.67"/><rect class="cls-2" x="144" y="74.33" width="5.67" height="5.67" rx="0.67"/><rect class="cls-2" x="164" y="74.33" width="5.67" height="5.67" rx="0.67"/><rect class="cls-2" x="184" y="74.33" width="5.67" height="5.67" rx="0.67"/></g><g id="_2" data-name="2"><rect class="cls-3" x="-4" y="64.33" width="5.67" height="5.67" rx="0.67"/><rect class="cls-3" x="16" y="64.33" width="5.67" height="5.67" rx="0.67"/><rect class="cls-3" x="36" y="64.33" width="5.67" height="5.67" rx="0.67"/><rect class="cls-3" x="56" y="64.33" width="5.67" height="5.67" rx="0.67"/><rect class="cls-3" x="76" y="64.33" width="5.67" height="5.67" rx="0.67"/><rect class="cls-3" x="96" y="64.33" width="5.67" height="5.67" rx="0.67"/><rect class="cls-3" x="116" y="64.33" width="5.67" height="5.67" rx="0.67"/><rect class="cls-3" x="136" y="64.33" width="5.67" height="5.67" rx="0.67"/><rect class="cls-3" x="156" y="64.33" width="5.67" height="5.67" rx="0.67"/><rect class="cls-3" x="176" y="64.33" width="5.67" height="5.67" rx="0.67"/><rect class="cls-3" x="196" y="64.33" width="5.67" height="5.67" rx="0.67"/></g><g id="_3" data-name="3"><rect class="cls-4" x="4" y="54.33" width="5.67" height="5.67" rx="0.67"/><rect class="cls-4" x="24" y="54.33" width="5.67" height="5.67" rx="0.67"/><rect class="cls-4" x="44" y="54.33" width="5.67" height="5.67" rx="0.67"/><rect class="cls-4" x="64" y="54.33" width="5.67" height="5.67" rx="0.67"/><rect class="cls-4" x="84" y="54.33" width="5.67" height="5.67" rx="0.67"/><rect class="cls-4" x="104" y="54.33" width="5.67" height="5.67" rx="0.67"/><rect class="cls-4" x="124" y="54.33" width="5.67" height="5.67" rx="0.67"/><rect class="cls-4" x="144" y="54.33" width="5.67" height="5.67" rx="0.67"/><rect class="cls-4" x="164" y="54.33" width="5.67" height="5.67" rx="0.67"/><rect class="cls-4" x="184" y="54.33" width="5.67" height="5.67" rx="0.67"/></g><g id="_4" data-name="4"><rect class="cls-5" x="-4" y="44.33" width="5.67" height="5.67" rx="0.67"/><rect class="cls-5" x="16" y="44.33" width="5.67" height="5.67" rx="0.67"/><rect class="cls-5" x="36" y="44.33" width="5.67" height="5.67" rx="0.67"/><rect class="cls-5" x="56" y="44.33" width="5.67" height="5.67" rx="0.67"/><rect class="cls-5" x="76" y="44.33" width="5.67" height="5.67" rx="0.67"/><rect class="cls-5" x="96" y="44.33" width="5.67" height="5.67" rx="0.67"/><rect class="cls-5" x="116" y="44.33" width="5.67" height="5.67" rx="0.67"/><rect class="cls-5" x="136" y="44.33" width="5.67" height="5.67" rx="0.67"/><rect class="cls-5" x="156" y="44.33" width="5.67" height="5.67" rx="0.67"/><rect class="cls-5" x="176" y="44.33" width="5.67" height="5.67" rx="0.67"/><rect class="cls-5" x="196" y="44.33" width="5.67" height="5.67" rx="0.67"/></g><g id="_5" data-name="5"><rect class="cls-6" x="3" y="34.33" width="5.67" height="5.67" rx="0.67"/><rect class="cls-6" x="23" y="34.33" width="5.67" height="5.67" rx="0.67"/><rect class="cls-6" x="43" y="34.33" width="5.67" height="5.67" rx="0.67"/><rect class="cls-6" x="63" y="34.33" width="5.67" height="5.67" rx="0.67"/><rect class="cls-6" x="83" y="34.33" width="5.67" height="5.67" rx="0.67"/><rect class="cls-6" x="103" y="34.33" width="5.67" height="5.67" rx="0.67"/><rect class="cls-6" x="123" y="34.33" width="5.67" height="5.67" rx="0.67"/><rect class="cls-6" x="143" y="34.33" width="5.67" height="5.67" rx="0.67"/><rect class="cls-6" x="163" y="34.33" width="5.67" height="5.67" rx="0.67"/><rect class="cls-6" x="183" y="34.33" width="5.67" height="5.67" rx="0.67"/><rect class="cls-6" x="203" y="34.33" width="5.67" height="5.67" rx="0.67"/></g><g id="_6" data-name="6"><rect class="cls-7" x="-4" y="24.33" width="5.67" height="5.67" rx="0.67"/><rect class="cls-7" x="16" y="24.33" width="5.67" height="5.67" rx="0.67"/><rect class="cls-7" x="36" y="24.33" width="5.67" height="5.67" rx="0.67"/><rect class="cls-7" x="56" y="24.33" width="5.67" height="5.67" rx="0.67"/><rect class="cls-7" x="76" y="24.33" width="5.67" height="5.67" rx="0.67"/><rect class="cls-7" x="96" y="24.33" width="5.67" height="5.67" rx="0.67"/><rect class="cls-7" x="116" y="24.33" width="5.67" height="5.67" rx="0.67"/><rect class="cls-7" x="136" y="24.33" width="5.67" height="5.67" rx="0.67"/><rect class="cls-7" x="156" y="24.33" width="5.67" height="5.67" rx="0.67"/><rect class="cls-7" x="176" y="24.33" width="5.67" height="5.67" rx="0.67"/><rect class="cls-7" x="196" y="24.33" width="5.67" height="5.67" rx="0.67"/></g><g id="_7" data-name="7"><rect class="cls-8" x="4" y="14.33" width="5.67" height="5.67" rx="0.67"/><rect class="cls-8" x="24" y="14.33" width="5.67" height="5.67" rx="0.67"/><rect class="cls-8" x="44" y="14.33" width="5.67" height="5.67" rx="0.67"/><rect class="cls-8" x="64" y="14.33" width="5.67" height="5.67" rx="0.67"/><rect class="cls-8" x="84" y="14.33" width="5.67" height="5.67" rx="0.67"/><rect class="cls-8" x="104" y="14.33" width="5.67" height="5.67" rx="0.67"/><rect class="cls-8" x="124" y="14.33" width="5.67" height="5.67" rx="0.67"/><rect class="cls-8" x="144" y="14.33" width="5.67" height="5.67" rx="0.67"/><rect class="cls-8" x="164" y="14.33" width="5.67" height="5.67" rx="0.67"/><rect class="cls-8" x="184" y="14.33" width="5.67" height="5.67" rx="0.67"/><rect class="cls-8" x="204" y="14.33" width="5.67" height="5.67" rx="0.67"/></g><g id="_8" data-name="8"><rect class="cls-9" y="4.33" width="5.67" height="5.67" rx="0.67"/><rect class="cls-9" x="20" y="4.33" width="5.67" height="5.67" rx="0.67"/><rect class="cls-9" x="40" y="4.33" width="5.67" height="5.67" rx="0.67"/><rect class="cls-9" x="60" y="4.33" width="5.67" height="5.67" rx="0.67"/><rect class="cls-9" x="80" y="4.33" width="5.67" height="5.67" rx="0.67"/><rect class="cls-9" x="100" y="4.33" width="5.67" height="5.67" rx="0.67"/><rect class="cls-9" x="120" y="4.33" width="5.67" height="5.67" rx="0.67"/><rect class="cls-9" x="140" y="4.33" width="5.67" height="5.67" rx="0.67"/><rect class="cls-9" x="160" y="4.33" width="5.67" height="5.67" rx="0.67"/><rect class="cls-9" x="180" y="4.33" width="5.67" height="5.67" rx="0.67"/><rect class="cls-9" x="200" y="4.33" width="5.67" height="5.67" rx="0.67"/></g></svg>